<svg xmlns="http://www.w3.org/2000/svg" viewBox="0 0 800 185"><defs><style>.cls-1,.cls-2{fill:#fff;}.cls-2{fill-opacity:0;}.cls-3{fill:#f59a31;}</style></defs><g id="freecodecamp_white_horizontal_orange"><path id="aTZImEIR" class="cls-1" d="M104.83,78.45l1.07.13,1,.19,1,.23.91.29.85.35.8.38.75.45.69.51.65.54.59.6.54.65.48.71.43.76.39.8.33.87.28.89.23,1,.18,1,.12,1.07.08,1.11,0,1.17v.55l0,.26-.08.49,0,.22-.06.22-.07.19-.18.36-.08.16-.12.15-.11.14-.13.12-.14.12-.14.09-.15.09-.17.06-.18.07-.18,0-.19,0-.21,0H92.27v-.18h0v5.12l.07.59.08.56.14.53.17.5.22.48.24.44.3.42.31.39.38.37.4.33.44.31.48.29.53.26.55.23.6.21.63.16.68.16.72.11.75.09.79.08.83,0H104l.3,0h.29l.56-.06.27,0,.27,0,.51-.08.24,0,.26,0,.69-.15.23-.07.21,0,.21-.06.2-.08.21-.06.11,0,.12-.06.13,0,.12-.06.14,0,.14-.07.16-.07.15-.07.5-.27.19-.1.18-.11.41-.23.2-.12.22-.13.21-.15.46-.3.25-.16.26-.17.25-.18.3-.28.31-.26.14-.11.13-.11.14-.1.13-.11.23-.18.23-.15.1-.07.1,0,.09-.06.18-.08.08,0,.08,0,.06,0,.13,0h.2l.26,0,.12,0,.12,0,.12,0,.09,0,.18.1.09.07.16.15.06.08.07.09.1.21,0,.11,0,.13,0,.13v.13l0,.14v.48l0,.17,0,.16,0,.16-.16.5-.08.15-.07.17-.09.17-.1.17-.12.17-.12.15-.25.34-.31.33-.33.34-.38.33-.21.17-.2.18-.36.26-.37.25-.38.25-.4.25-.4.22-.44.22-.45.19-.46.19-.47.18-.5.17-.51.15-.52.15-.54.14-.55.11-1.15.21-.6.08-.61.07-.63,0-.65.06-.65,0-.66,0h-1.88l-1.14-.07-1.08-.1-1-.15-1-.19-.93-.23L95,110l-.83-.32-.76-.35-.72-.4-.67-.44-.62-.49-.55-.52-.51-.56-.46-.62-.4-.65-.34-.69-.31-.74-.23-.78-.19-.82-.14-.86-.07-.91,0-1V88.32l0-.34,0-.31,0-.32,0-.33.05-.3.07-.32.08-.29.1-.31.11-.3.11-.29.13-.29.28-.57.17-.28.16-.27.18-.27.19-.26.21-.25.22-.26.45-.49.25-.25.33-.32.71-.6.38-.26.4-.26.41-.25.44-.23.43-.22.46-.19.47-.2.49-.16.5-.16.52-.15.53-.13.54-.12.55-.1.58-.08.58-.08.59-.06.61,0,.63,0,.64,0h.65l1.16,0Zm-5,4-1,.16-1,.25-.92.31-.89.37-.85.44-.78.62-.67.64-.56.7-.44.72-.32.76-.21.8-.06.84v2.38h19.92L111.92,89l-.61-2-1-1.67-1.46-1.31L107,83l-2.3-.55-2.7-.19-1.06,0Z"/><path id="aTZImEIR-2" data-name="aTZImEIR" class="cls-2" d="M104.83,78.45l1.07.13,1,.19,1,.23.91.29.85.35.8.38.75.45.69.51.65.54.59.6.54.65.48.71.43.76.39.8.33.87.28.89.23,1,.18,1,.12,1.07.08,1.11,0,1.17v.55l0,.26-.08.49,0,.22-.06.22-.07.19-.18.36-.08.16-.12.15-.11.14-.13.12-.14.12-.14.09-.15.09-.17.06-.18.07-.18,0-.19,0-.21,0H92.27v-.18h0v5.12l.07.59.08.56.14.53.17.5.22.48.24.44.3.42.31.39.38.37.4.33.44.31.48.29.53.26.55.23.6.21.63.16.68.16.72.11.75.09.79.08.83,0H104l.3,0h.29l.56-.06.27,0,.27,0,.51-.08.24,0,.26,0,.69-.15.23-.07.21,0,.21-.06.2-.08.21-.06.11,0,.12-.06.13,0,.12-.06.14,0,.14-.07.16-.07.15-.07.5-.27.19-.1.18-.11.41-.23.2-.12.22-.13.21-.15.46-.3.25-.16.26-.17.25-.18.3-.28.31-.26.14-.11.13-.11.14-.1.13-.11.23-.18.23-.15.1-.07.1,0,.09-.06.18-.08.08,0,.08,0,.06,0,.13,0h.2l.26,0,.12,0,.12,0,.12,0,.09,0,.18.1.09.07.16.15.06.08.07.09.1.21,0,.11,0,.13,0,.13v.13l0,.14v.48l0,.17,0,.16,0,.16-.16.5-.08.15-.07.17-.09.17-.1.17-.12.17-.12.15-.25.34-.31.33-.33.34-.38.33-.21.17-.2.18-.36.26-.37.25-.38.25-.4.25-.4.22-.44.22-.45.19-.46.19-.47.18-.5.17-.51.15-.52.15-.54.14-.55.11-1.15.21-.6.08-.61.07-.63,0-.65.06-.65,0-.66,0h-1.88l-1.14-.07-1.08-.1-1-.15-1-.19-.93-.23L95,110l-.83-.32-.76-.35-.72-.4-.67-.44-.62-.49-.55-.52-.51-.56-.46-.62-.4-.65-.34-.69-.31-.74-.23-.78-.19-.82-.14-.86-.07-.91,0-1V88.32l0-.34,0-.31,0-.32,0-.33.05-.3.07-.32.08-.29.1-.31.11-.3.11-.29.13-.29.28-.57.17-.28.16-.27.18-.27.19-.26.21-.25.22-.26.45-.49.25-.25.33-.32.71-.6.38-.26.4-.26.41-.25.44-.23.43-.22.46-.19.47-.2.49-.16.5-.16.52-.15.53-.13.54-.12.55-.1.58-.08.58-.08.59-.06.61,0,.63,0,.64,0h.65l1.16,0Zm-5,4-1,.16-1,.25-.92.31-.89.37-.85.44-.78.62-.67.64-.56.7-.44.72-.32.76-.21.8-.06.84v2.38h19.92L111.92,89l-.61-2-1-1.67-1.46-1.31L107,83l-2.3-.55-2.7-.19-1.06,0Z"/><path id="a1reJuC17o" class="cls-1" d="M514.1,65.22a1.67,1.67,0,0,0-.57,1.1c0,.72.83,1.68,2.36,3.27a30.6,30.6,0,0,1,9.57,23c0,10.14-3.4,18.29-10,24.6-1.38,1.25-1.94,2.23-1.94,3.06a2.52,2.52,0,0,0,.56,1.26,2,2,0,0,0,1.23.57c1.52,0,3.65-1.81,6.42-5.34,5.41-6.69,7.85-14.08,8-24.14s-3-16.9-9.12-24c-2.2-2.51-4-3.82-5.3-3.83A2.11,2.11,0,0,0,514.1,65.22Z"/><path id="a1reJuC17o-2" data-name="a1reJuC17o" class="cls-2" d="M514.1,65.22a1.67,1.67,0,0,0-.57,1.1c0,.72.83,1.68,2.36,3.27a30.6,30.6,0,0,1,9.57,23c0,10.14-3.4,18.29-10,24.6-1.38,1.25-1.94,2.23-1.94,3.06a2.52,2.52,0,0,0,.56,1.26,2,2,0,0,0,1.23.57c1.52,0,3.65-1.81,6.42-5.34,5.41-6.69,7.85-14.08,8-24.14s-3-16.9-9.12-24c-2.2-2.51-4-3.82-5.3-3.83A2.11,2.11,0,0,0,514.1,65.22Z"/><path id="b3CiUzYJD1" class="cls-1" d="M53.22,81c0-1.39.83-2,2.49-2h8.07c1.38,0,2.07,1.26,2.07,3.54,2.49-2.66,5.15-4.25,7.93-4.25a7,7,0,0,1,5.44,2.11A7.76,7.76,0,0,1,81.16,86c0,1.53-.7,2.37-1.94,2.37-.83,0-1.38-.56-1.66-1.53a18.21,18.21,0,0,0-1-3.08,3.33,3.33,0,0,0-3-1.53,6.62,6.62,0,0,0-4.33,1.67,18.5,18.5,0,0,0-3.37,3.67v18.85h7.5c1.66,0,2.49.72,2.49,2s-.83,2.1-2.49,2.1H55.51c-1.65,0-2.48-.71-2.48-2s.83-2,2.48-2h6.13v-.18h.06V82.91h-6C54.05,82.91,53.22,82.22,53.22,81Z"/><path id="b3CiUzYJD1-2" data-name="b3CiUzYJD1" class="cls-2" d="M53.22,81c0-1.39.83-2,2.49-2h8.07c1.38,0,2.07,1.26,2.07,3.54,2.49-2.66,5.15-4.25,7.93-4.25a7,7,0,0,1,5.44,2.11A7.76,7.76,0,0,1,81.16,86c0,1.53-.7,2.37-1.94,2.37-.83,0-1.38-.56-1.66-1.53a18.21,18.21,0,0,0-1-3.08,3.33,3.33,0,0,0-3-1.53,6.62,6.62,0,0,0-4.33,1.67,18.5,18.5,0,0,0-3.37,3.67v18.85h7.5c1.66,0,2.49.72,2.49,2s-.83,2.1-2.49,2.1H55.51c-1.65,0-2.48-.71-2.48-2s.83-2,2.48-2h6.13v-.18h.06V82.91h-6C54.05,82.91,53.22,82.22,53.22,81Z"/><path id="a27fjRDZiD" class="cls-1" d="M494.85,94.39C492.46,93.77,502.3,82,484.8,68c0,0,2.3,7.36-9.28,23.8S480.67,118,480.67,118s-7.85-4.22,1.28-19.26c1.63-2.73,3.77-5.21,6.42-10.77,0,0,2.35,3.35,1.13,10.61-1.84,11,7.95,7.83,8.11,8,3.42,4.07-2.84,11.22-3.22,11.44s17.86-11.07,4.9-28.07C498.4,90.81,497.25,95,494.85,94.39Z"/><path id="a27fjRDZiD-2" data-name="a27fjRDZiD" class="cls-2" d="M494.85,94.39C492.46,93.77,502.3,82,484.8,68c0,0,2.3,7.36-9.28,23.8S480.67,118,480.67,118s-7.85-4.22,1.28-19.26c1.63-2.73,3.77-5.21,6.42-10.77,0,0,2.35,3.35,1.13,10.61-1.84,11,7.95,7.83,8.11,8,3.42,4.07-2.84,11.22-3.22,11.44s17.86-11.07,4.9-28.07C498.4,90.81,497.25,95,494.85,94.39Z"/><path id="fO2LoynhC" class="cls-1" d="M21,79h4.49v-4c0-6.89,3.5-10.29,10.31-10.29a14.57,14.57,0,0,1,7,1.54,7.18,7.18,0,0,1,3.65,6.34c0,1.8-.69,2.51-1.93,2.51a2.38,2.38,0,0,1-2.09-1.55A13.28,13.28,0,0,0,41,70.39c-.83-1-2.49-1.53-4.89-1.53-4.19,0-6.25,2.08-6.25,6.33V79h8.06c1.79,0,2.62.7,2.62,2s-.83,2-2.62,2H29.85v25.74c0,1.53-.71,2.37-2,2.37S26,110.18,26,108.65V83H21c-1.52,0-2.35-.69-2.35-1.94C18.63,79.6,19.46,79,21,79Z"/><path id="fO2LoynhC-2" data-name="fO2LoynhC" class="cls-2" d="M21,79h4.49v-4c0-6.89,3.5-10.29,10.31-10.29a14.57,14.57,0,0,1,7,1.54,7.18,7.18,0,0,1,3.65,6.34c0,1.8-.69,2.51-1.93,2.51a2.38,2.38,0,0,1-2.09-1.55A13.28,13.28,0,0,0,41,70.39c-.83-1-2.49-1.53-4.89-1.53-4.19,0-6.25,2.08-6.25,6.33V79h8.06c1.79,0,2.62.7,2.62,2s-.83,2-2.62,2H29.85v25.74c0,1.53-.71,2.37-2,2.37S26,110.18,26,108.65V83H21c-1.52,0-2.35-.69-2.35-1.94C18.63,79.6,19.46,79,21,79Z"/><path id="ovQ1ILSSG" class="cls-1" d="M461.32,65.23a1.7,1.7,0,0,1,.56,1.1c0,.71-.82,1.68-2.36,3.27a30.63,30.63,0,0,0-9.57,23c0,10.15,3.4,18.29,10,24.61,1.38,1.25,1.94,2.22,1.95,3.06a2.42,2.42,0,0,1-.57,1.25,2,2,0,0,1-1.23.58c-1.52,0-3.65-1.81-6.42-5.34-5.41-6.69-7.85-14.08-8-24.14s3-16.91,9.12-24c2.21-2.52,4-3.83,5.3-3.83A2.16,2.16,0,0,1,461.32,65.23Z"/><path id="ovQ1ILSSG-2" data-name="ovQ1ILSSG" class="cls-2" d="M461.32,65.23a1.7,1.7,0,0,1,.56,1.1c0,.71-.82,1.68-2.36,3.27a30.63,30.63,0,0,0-9.57,23c0,10.15,3.4,18.29,10,24.61,1.38,1.25,1.94,2.22,1.95,3.06a2.42,2.42,0,0,1-.57,1.25,2,2,0,0,1-1.23.58c-1.52,0-3.65-1.81-6.42-5.34-5.41-6.69-7.85-14.08-8-24.14s3-16.91,9.12-24c2.21-2.52,4-3.83,5.3-3.83A2.16,2.16,0,0,1,461.32,65.23Z"/><path id="bidTnXnUH" class="cls-1" d="M139.82,78.45l1.07.13,1,.19.95.23.91.29.86.35.79.38.75.45.69.51.65.54.59.6.54.65.48.71.44.76.38.8.33.87.28.89.23,1,.18,1,.13,1.07.07,1.11,0,1.17v.55l0,.26-.08.49,0,.22-.07.22-.07.19-.17.36-.09.16-.12.15-.11.14-.13.12-.14.12-.14.09-.15.09-.17.06-.18.07-.18,0-.19,0-.2,0H127.26v-.18h-.05v4.52l0,.6.06.59.1.56.12.53.17.5.22.48.24.44.3.42.33.39.36.37.4.33.44.31.48.29.53.26.55.23.6.21.63.16.68.16.72.11.75.09.79.08.83,0H139l.29,0h.29l.56-.06.27,0,.27,0,.77-.12.24,0,.23,0,.25,0,.21,0,.23-.07.22,0,.2-.06.2-.08.21-.06.11,0,.12-.06.13,0,.12-.06.14,0,.14-.07.16-.07.15-.07.33-.17.18-.1.19-.1.18-.11.19-.11.21-.12.2-.12.22-.13.21-.15.47-.3.24-.16.26-.17.25-.18.31-.28.3-.26.15-.11.12-.11.14-.1.13-.11.23-.18.23-.15.1-.07.1,0,.1-.06.17-.08.08,0,.08,0,.06,0,.13,0h.2l.26,0,.12,0,.12,0,.12,0,.1,0,.17.1.1.07.15.15.06.08.07.09.1.21,0,.11,0,.13,0,.13v.13l0,.14v.65l0,.16,0,.16-.16.5-.08.15-.07.17-.09.17-.21.34-.12.15-.26.34-.3.33-.34.34-.38.33-.21.17-.2.18-.36.26-.37.25-.38.25-.4.25-.4.22-.44.22-.44.19-.47.19-.47.18-.5.17-.51.15-.52.15-.53.14-.56.11-1.14.21-.61.08-.61.07-.62,0-.64.06L138,111h-1.88l-1.13-.07-1.09-.1-1-.15-1-.19-.92-.23L130,110l-.83-.32-.76-.35-.72-.4-.67-.44-.61-.49-.56-.52-.51-.56-.46-.62-.4-.65-.34-.69-.29-.74-.25-.78-.19-.82-.14-.86-.07-.91,0-1V88.32l0-.34,0-.31,0-.32,0-.33,0-.3.08-.32.07-.29.1-.31.11-.3.11-.29.13-.29.28-.57.17-.28.17-.27.18-.27.19-.26.2-.25.22-.26.45-.49.25-.25.33-.32.72-.6.38-.26.39-.26.41-.25.44-.23.43-.22.46-.19.47-.2.49-.16.5-.16.52-.15.53-.13.55-.12.54-.1.58-.08.58-.08.59-.06.61,0,.63,0,.64,0h.65l1.16,0Zm-5,4-1,.16-1,.25-.92.31-.89.37-.85.44-.82.62-.69.64-.56.7-.42.72-.31.76-.18.8-.06.84v2.38h19.92L146.91,89l-.61-2-1-1.67-1.46-1.31L142,83l-2.31-.55-2.7-.19-1.06,0Z"/><path id="bidTnXnUH-2" data-name="bidTnXnUH" class="cls-2" d="M139.82,78.45l1.07.13,1,.19.95.23.91.29.86.35.79.38.75.45.69.51.65.54.59.6.54.65.48.71.44.76.38.8.33.87.28.89.23,1,.18,1,.13,1.07.07,1.11,0,1.17v.55l0,.26-.08.49,0,.22-.07.22-.07.19-.17.36-.09.16-.12.15-.11.14-.13.12-.14.12-.14.09-.15.09-.17.06-.18.07-.18,0-.19,0-.2,0H127.26v-.18h-.05v4.52l0,.6.06.59.1.56.12.53.17.5.22.48.24.44.3.42.33.39.36.37.4.33.44.31.48.29.53.26.55.23.6.21.63.16.68.16.72.11.75.09.79.08.83,0H139l.29,0h.29l.56-.06.27,0,.27,0,.77-.12.24,0,.23,0,.25,0,.21,0,.23-.07.22,0,.2-.06.2-.08.21-.06.11,0,.12-.06.13,0,.12-.06.14,0,.14-.07.16-.07.15-.07.33-.17.18-.1.19-.1.18-.11.19-.11.21-.12.2-.12.22-.13.21-.15.47-.3.24-.16.26-.17.25-.18.31-.28.3-.26.15-.11.12-.11.14-.1.13-.11.23-.18.23-.15.1-.07.1,0,.1-.06.17-.08.08,0,.08,0,.06,0,.13,0h.2l.26,0,.12,0,.12,0,.12,0,.1,0,.17.1.1.07.15.15.06.08.07.09.1.21,0,.11,0,.13,0,.13v.13l0,.14v.65l0,.16,0,.16-.16.5-.08.15-.07.17-.09.17-.21.34-.12.15-.26.34-.3.33-.34.34-.38.33-.21.17-.2.18-.36.26-.37.25-.38.25-.4.25-.4.22-.44.22-.44.19-.47.19-.47.18-.5.17-.51.15-.52.15-.53.14-.56.11-1.14.21-.61.08-.61.07-.62,0-.64.06L138,111h-1.88l-1.13-.07-1.09-.1-1-.15-1-.19-.92-.23L130,110l-.83-.32-.76-.35-.72-.4-.67-.44-.61-.49-.56-.52-.51-.56-.46-.62-.4-.65-.34-.69-.29-.74-.25-.78-.19-.82-.14-.86-.07-.91,0-1V88.32l0-.34,0-.31,0-.32,0-.33,0-.3.08-.32.07-.29.1-.31.11-.3.11-.29.13-.29.28-.57.17-.28.17-.27.18-.27.19-.26.2-.25.22-.26.45-.49.25-.25.33-.32.72-.6.38-.26.39-.26.41-.25.44-.23.43-.22.46-.19.47-.2.49-.16.5-.16.52-.15.53-.13.55-.12.54-.1.58-.08.58-.08.59-.06.61,0,.63,0,.64,0h.65l1.16,0Zm-5,4-1,.16-1,.25-.92.31-.89.37-.85.44-.82.62-.69.64-.56.7-.42.72-.31.76-.18.8-.06.84v2.38h19.92L146.91,89l-.61-2-1-1.67-1.46-1.31L142,83l-2.31-.55-2.7-.19-1.06,0Z"/><path id="cNUomkEDc" class="cls-1" d="M405.11,78.14l.08,0,.15,0,.08,0,.06,0,.08,0,.07.06.07,0,.07.07.07.06.07.07.13.15.13.18.07.1.05.1.06.11.06.11,0,.1,0,.2,0,.12,0,.1,0,.11,0,.1,0,.11,0,.11.11.31,0,.11.08.21,0,.1,0,.11,0,.2.05.09v.11l0,.09.62-.3,1.2-.56.57-.27.57-.24.55-.23.55-.22.54-.21.52-.18.51-.18.5-.15.48-.16.49-.12.92-.24.45-.09.42-.08.42-.06.41,0,.4,0,.39,0H418l1.14,0,1.07.07,1,.11,1,.16.92.21.87.24.81.3.76.33.71.37.65.43.59.48.55.5.5.55.45.61.39.65.34.68.29.72.23.78.18.81.14.85.08.89,0,.94v11.68l0,.47,0,.43,0,.44-.06.42-.06.43-.09.4-.1.4-.12.39-.12.37-.14.37-.16.36-.18.34-.19.35-.2.34-.22.32-.23.31-.24.31-.27.29-.28.3-.28.29-.31.27-.32.26-.29.24-.29.2-.32.21-.32.19-.34.18-.33.17-.35.17-.36.14-.37.14-.77.26-.82.21-.4.08-.44.09-.43.06-.9.1-.46,0-.47,0h-1.54l-.59,0-.57,0-.57,0-.56-.06-.55-.07-.53-.09-1.08-.24-.52-.14-.51-.14-.52-.17-.49-.18-.5-.2-.49-.21-.48-.23-.47-.25-.47-.26-.46-.27-.47-.28-.44-.31-.45-.33v13.74l0,.24,0,.22,0,.22-.05.21-.05.19-.07.19-.06.17-.09.17-.08.14-.1.14-.09.12-.12.12-.11.1-.12.09-.14.07-.14.06-.14,0-.15,0-.16,0h-.49l-.15,0-.14,0-.14-.05-.26-.15-.11-.09-.12-.11-.1-.13-.09-.12-.09-.15-.08-.15-.06-.17-.07-.19,0-.19-.06-.21,0-.23,0-.24,0-.26V80.44l0-.23,0-.22,0-.21,0-.19.05-.18.06-.19.13-.31.08-.12.09-.13.08-.12.11-.09.11-.09.11-.08.12-.06.26-.08.14,0H405l.08,0Zm10.94,4.28-.57,0-.56.05-.54.08-.51.08-.5.1-.47.13-.46.14-.45.16-.42.17-.37.17-.38.21-.38.23-.4.27-.4.31-.4.34-.43.37-.43.4-.45.43-.47.46-.5.49v16.07h.14v-.06l1.15.69,1.11.62,1.08.57,1,.48,1,.43,1,.35.93.29.88.24.85.16.82.1.78,0h.68l.65,0,.63-.07.61-.08.59-.09.56-.13.53-.14.51-.18.49-.19.46-.24.42-.24.51-.32.45-.35.39-.37.35-.4.29-.43.25-.45.19-.48.15-.49.11-.53.06-.55,0-.57V89l0-.67-.07-.63-.12-.58-.17-.56-.23-.51-.27-.49-.33-.45L425,84.7l-.43-.37L424.1,84l-.53-.31-.44-.22-.46-.2-.49-.17-.51-.16-.55-.14-.57-.12-.6-.09-.63-.08-.65,0-.67,0h-1.95Z"/><path id="cNUomkEDc-2" data-name="cNUomkEDc" class="cls-2" d="M405.11,78.14l.08,0,.15,0,.08,0,.06,0,.08,0,.07.06.07,0,.07.07.07.06.07.07.13.15.13.18.07.1.05.1.06.11.06.11,0,.1,0,.2,0,.12,0,.1,0,.11,0,.1,0,.11,0,.11.11.31,0,.11.08.21,0,.1,0,.11,0,.2.05.09v.11l0,.09.62-.3,1.2-.56.57-.27.57-.24.55-.23.55-.22.54-.21.52-.18.51-.18.5-.15.48-.16.49-.12.92-.24.45-.09.42-.08.42-.06.41,0,.4,0,.39,0H418l1.14,0,1.07.07,1,.11,1,.16.92.21.87.24.81.3.76.33.71.37.65.43.59.48.55.5.5.55.45.61.39.65.34.68.29.72.23.78.18.81.14.85.08.89,0,.94v11.68l0,.47,0,.43,0,.44-.06.42-.06.43-.09.4-.1.4-.12.39-.12.37-.14.37-.16.36-.18.34-.19.35-.2.34-.22.32-.23.31-.24.31-.27.29-.28.3-.28.29-.31.27-.32.26-.29.24-.29.2-.32.21-.32.19-.34.18-.33.17-.35.17-.36.14-.37.14-.77.26-.82.21-.4.08-.44.09-.43.06-.9.1-.46,0-.47,0h-1.54l-.59,0-.57,0-.57,0-.56-.06-.55-.07-.53-.09-1.08-.24-.52-.14-.51-.14-.52-.17-.49-.18-.5-.2-.49-.21-.48-.23-.47-.25-.47-.26-.46-.27-.47-.28-.44-.31-.45-.33v13.74l0,.24,0,.22,0,.22-.05.21-.05.19-.07.19-.06.17-.09.17-.08.14-.1.14-.09.12-.12.12-.11.1-.12.09-.14.07-.14.06-.14,0-.15,0-.16,0h-.49l-.15,0-.14,0-.14-.05-.26-.15-.11-.09-.12-.11-.1-.13-.09-.12-.09-.15-.08-.15-.06-.17-.07-.19,0-.19-.06-.21,0-.23,0-.24,0-.26V80.44l0-.23,0-.22,0-.21,0-.19.05-.18.06-.19.13-.31.08-.12.09-.13.08-.12.11-.09.11-.09.11-.08.12-.06.26-.08.14,0H405l.08,0Zm10.94,4.28-.57,0-.56.05-.54.08-.51.08-.5.1-.47.13-.46.14-.45.16-.42.17-.37.17-.38.21-.38.23-.4.27-.4.31-.4.34-.43.37-.43.4-.45.43-.47.46-.5.49v16.07h.14v-.06l1.15.69,1.11.62,1.08.57,1,.48,1,.43,1,.35.93.29.88.24.85.16.82.1.78,0h.68l.65,0,.63-.07.61-.08.59-.09.56-.13.53-.14.51-.18.49-.19.46-.24.42-.24.51-.32.45-.35.39-.37.35-.4.29-.43.25-.45.19-.48.15-.49.11-.53.06-.55,0-.57V89l0-.67-.07-.63-.12-.58-.17-.56-.23-.51-.27-.49-.33-.45L425,84.7l-.43-.37L424.1,84l-.53-.31-.44-.22-.46-.2-.49-.17-.51-.16-.55-.14-.57-.12-.6-.09-.63-.08-.65,0-.67,0h-1.95Z"/><path id="b5Iz46OVaX" class="cls-1" d="M182.53,69.13a10.45,10.45,0,0,1,4.2,8.7c0,1.68-.69,2.52-2.08,2.52q-1.46,0-2.07-2.52a14.78,14.78,0,0,0-1.52-4c-1.25-2.23-3.92-3.25-8.07-3.25-3.64,0-6.13.84-7.65,2.65s-2.22,4.24-2.22,8V95.89c0,3.82.83,6.48,2.35,8.15s4.2,2.79,7.8,2.79c5.44,0,8.62-2,9.31-5.76.27-1.41.41-2.11.41-2.25a1.62,1.62,0,0,1,1.66-1.25c1.39,0,2.08.84,2.08,2.52a9.53,9.53,0,0,1-4.34,8.29,16.3,16.3,0,0,1-9.17,2.37c-4.47,0-7.93-1-10.47-3.08-2.95-2-4.19-5.3-4.19-9.69h0V80.4c0-9.28,4.7-13.79,14.48-13.79A16.55,16.55,0,0,1,182.53,69.13Z"/><path id="b5Iz46OVaX-2" data-name="b5Iz46OVaX" class="cls-2" d="M182.53,69.13a10.45,10.45,0,0,1,4.2,8.7c0,1.68-.69,2.52-2.08,2.52q-1.46,0-2.07-2.52a14.78,14.78,0,0,0-1.52-4c-1.25-2.23-3.92-3.25-8.07-3.25-3.64,0-6.13.84-7.65,2.65s-2.22,4.24-2.22,8V95.89c0,3.82.83,6.48,2.35,8.15s4.2,2.79,7.8,2.79c5.44,0,8.62-2,9.31-5.76.27-1.41.41-2.11.41-2.25a1.62,1.62,0,0,1,1.66-1.25c1.39,0,2.08.84,2.08,2.52a9.53,9.53,0,0,1-4.34,8.29,16.3,16.3,0,0,1-9.17,2.37c-4.47,0-7.93-1-10.47-3.08-2.95-2-4.19-5.3-4.19-9.69h0V80.4c0-9.28,4.7-13.79,14.48-13.79A16.55,16.55,0,0,1,182.53,69.13Z"/><path id="a1Z8HXsFzs" class="cls-1" d="M382.71,81.84a8.27,8.27,0,0,1,3.05-2.65,8,8,0,0,1,3.91-.84c4.75,0,7.24,2.37,7.24,7v22.82c0,2-.69,2.79-2.07,2.79s-1.94-.84-1.94-2.79V86.82c0-2.93-1.24-4.51-3.64-4.51-1.8,0-3.64,1.11-5.16,3.26v22.81c0,1.94-.7,2.78-1.94,2.78s-1.94-.84-1.94-2.78V87.28c0-3.26-1.38-4.8-3.92-4.8-1.65,0-3.22,1.13-4.88,3.27v22.67c0,2-.69,2.8-2.08,2.8s-1.93-.84-1.93-2.8v-28c0-1.4.55-2,1.66-2,.55,0,1.1.41,1.38,1.25a3.41,3.41,0,0,1,.41,1.91h0q2-2.09,2.49-2.52a6.18,6.18,0,0,1,3.51-.84C379.07,78.29,381.05,79.42,382.71,81.84Z"/><path id="a1Z8HXsFzs-2" data-name="a1Z8HXsFzs" class="cls-2" d="M382.71,81.84a8.27,8.27,0,0,1,3.05-2.65,8,8,0,0,1,3.91-.84c4.75,0,7.24,2.37,7.24,7v22.82c0,2-.69,2.79-2.07,2.79s-1.94-.84-1.94-2.79V86.82c0-2.93-1.24-4.51-3.64-4.51-1.8,0-3.64,1.11-5.16,3.26v22.81c0,1.94-.7,2.78-1.94,2.78s-1.94-.84-1.94-2.78V87.28c0-3.26-1.38-4.8-3.92-4.8-1.65,0-3.22,1.13-4.88,3.27v22.67c0,2-.69,2.8-2.08,2.8s-1.93-.84-1.93-2.8v-28c0-1.4.55-2,1.66-2,.55,0,1.1.41,1.38,1.25a3.41,3.41,0,0,1,.41,1.91h0q2-2.09,2.49-2.52a6.18,6.18,0,0,1,3.51-.84C379.07,78.29,381.05,79.42,382.71,81.84Z"/><path id="c704sxfG2q" class="cls-1" d="M210.44,78.42l1.46.21,1.38.28,1.25.38,1.16.45,1.05.54.94.62.83.71.71.77.61.88.5.94.39,1,.28,1.12.16,1.19.05,1.27v11.56l-.05,1.28-.16,1.18-.27,1.12-.38,1-.49.94-.59.86-.7.79-.81.7-.91.62-1,.55-1.14.45-1.24.37-1.34.29-1.46.2-1.55.13-1.67,0-1.76,0-1.65-.09-1.53-.2-1.41-.27L199.8,110l-1.18-.45-1.06-.53-.94-.62-.83-.71-.73-.79-.6-.87-.5-1-.38-1-.27-1.14-.17-1.21,0-1.3V88.81l0-1.27.17-1.19.28-1.12.38-1,.5-.94.61-.88.72-.77.83-.71.93-.62,1.05-.54,1.15-.45,1.27-.38,1.37-.28,1.47-.21,1.59-.13,1.69,0,1.7,0Zm-6.52,4-1.28.23L201.5,83l-1,.41-.89.52-.75.59-.62.7-.48.77-.35.86-.21,1-.07,1v11.56l.07,1,.21,1,.35.87.49.78.63.68.77.59.91.5,1,.41,1.19.29,1.33.22,1.47.1,1.59,0,1.57,0,1.44-.1,1.31-.19,1.16-.3,1-.39.9-.48.77-.58.62-.69.49-.78.34-.88.22-1,.06-1.07V88.81l-.06-1-.22-1-.34-.86-.5-.77-.64-.7-.77-.59-.91-.52L212.55,83l-1.21-.32L210,82.4l-1.5-.14-1.63,0-1.53,0Z"/><path id="c704sxfG2q-2" data-name="c704sxfG2q" class="cls-2" d="M210.44,78.42l1.46.21,1.38.28,1.25.38,1.16.45,1.05.54.94.62.83.71.71.77.61.88.5.94.39,1,.28,1.12.16,1.19.05,1.27v11.56l-.05,1.28-.16,1.18-.27,1.12-.38,1-.49.94-.59.86-.7.79-.81.7-.91.62-1,.55-1.14.45-1.24.37-1.34.29-1.46.2-1.55.13-1.67,0-1.76,0-1.65-.09-1.53-.2-1.41-.27L199.8,110l-1.18-.45-1.06-.53-.94-.62-.83-.71-.73-.79-.6-.87-.5-1-.38-1-.27-1.14-.17-1.21,0-1.3V88.81l0-1.27.17-1.19.28-1.12.38-1,.5-.94.61-.88.72-.77.83-.71.93-.62,1.05-.54,1.15-.45,1.27-.38,1.37-.28,1.47-.21,1.59-.13,1.69,0,1.7,0Zm-6.52,4-1.28.23L201.5,83l-1,.41-.89.52-.75.59-.62.7-.48.77-.35.86-.21,1-.07,1v11.56l.07,1,.21,1,.35.87.49.78.63.68.77.59.91.5,1,.41,1.19.29,1.33.22,1.47.1,1.59,0,1.57,0,1.44-.1,1.31-.19,1.16-.3,1-.39.9-.48.77-.58.62-.69.49-.78.34-.88.22-1,.06-1.07V88.81l-.06-1-.22-1-.34-.86-.5-.77-.64-.7-.77-.59-.91-.52L212.55,83l-1.21-.32L210,82.4l-1.5-.14-1.63,0-1.53,0Z"/><path id="a2dF9UjJYG" class="cls-1" d="M347.83,78l.48,0,.44,0,.44,0,.42,0,.42,0,.41.06.4.05.38.09.37.05.35.1.36.07.33.09.35.11.32.1.31.1.3.12.3.13.29.12.28.14.27.13.25.14.26.15.28.21.27.22.25.22.25.25.23.24.23.27.21.27.21.28.19.3.18.31.16.31.17.32.28.7.13.36.11.36.1.38.1.39.07.4.07.41.05.43,0,.44,0,.44,0,.45v15.38l0,.36,0,.34,0,.17,0,.15,0,.14,0,.16,0,.14.08.26,0,.13.15.34.06.11.06.1.06.09.15.18.17.17h0l0,0,0,0,.05,0,0,0,.1.05.06,0,.13,0,.08,0,.08,0,.27.11.3.12.12,0,.11,0,.12,0,.11,0,.13,0,.14.05.07,0,.16.08.06,0,.07,0,.13.1,0,.06.05.06.05.06,0,.07,0,.07.08.15,0,.1,0,.07,0,.11,0,.09v.1l0,.1v.23l0,.12v.52l0,.12v.11l0,.11,0,.11,0,.1,0,.09,0,.09-.05.08-.13.15-.06.07-.08.07-.27.15-.2.08-.11,0-.13,0-.26,0-.14,0h-.25l-.05,0h-.2l-.25,0-.06,0h-.09l-.07,0h-.08l-.26-.08-.11,0-.08,0-.11,0-.11,0-.1,0-.12,0-.36-.12L359,110l-.17,0-.15-.07-.31-.1-.14,0-.14,0-.12,0-.12,0-.13,0-.1,0-.12,0-.1,0-.09,0-.09,0-.15,0-.19-.07-.06,0,0,0,0,0h-.17l-.09,0-.07,0-.08,0-.06,0-.08-.06-.06,0-.07-.06-.06-.08-.06-.07-.06-.08-.05-.08-.06-.1-.05-.1,0-.09,0-.11-.05-.12-.08-.23-.15-.52-.05-.14-.55.39-.54.36-.26.18-.48.31-.23.15-.44.29-.4.26-.19.11-.18.1-.33.21-.17.09-.14.1-.41.2-.11,0-.21.11-.1,0-.17.08-.16,0-.36.12-.58.16-.19,0-.2.05-.21,0-.43.08-.22,0-.21,0-.69.08-.25,0-.24,0h-.5l-.24,0h-1.19l-.39,0h-.39l-.77,0-.73-.08-.36,0-.36-.06-.69-.13-.66-.16-.32-.08-.32-.11-.31-.1-.31-.12-.58-.23-.28-.14-.28-.13-.27-.15-.27-.15-.26-.15-.25-.17-.3-.2-.28-.21-.53-.47-.24-.23-.24-.25-.23-.25-.2-.26-.2-.27-.19-.28-.17-.29-.17-.29-.15-.3-.14-.31-.13-.31-.11-.32-.21-.67-.07-.34-.07-.35-.1-.72-.05-.74V101l0-.38,0-.38,0-.36.13-.72.18-.7.11-.33.26-.65.15-.32.15-.31.36-.59.19-.29.21-.27.22-.27.24-.26.23-.25.25-.24.27-.23.56-.44.31-.2.54-.39.28-.18.58-.34.62-.31.32-.14.63-.26.34-.11.69-.21.34-.09.36-.09.36-.08.36-.06.36-.07.37,0,.39,0,.37,0,.39,0,.39,0h1.8l.68.06.35,0,.36,0,.36,0,.37.07.36,0,.37.08.37.06.38.09.76.17,1.19.31.4.12.42.11.41.13.42.13.42.14.44.14.43.16V88l0-.27,0-.27,0-.27-.05-.25-.05-.26-.08-.24-.07-.23-.09-.24-.11-.21-.11-.23-.26-.41-.15-.2-.15-.18-.17-.2-.36-.33-.2-.17-.44-.31-.22-.14-.25-.13-.25-.13-.27-.13-.18-.08-.39-.15-.81-.26-.65-.15-.23,0-.22,0-.24,0-.23,0-.23,0-.48,0-.26,0h-.24l-.26,0h-1.91l-.61,0-.58,0-.55,0-.53.06-.51.08-.47.08-.46.1-.44.12-.4.14-.38.14-.38.16-.34.17-.32.18-.29.21-.27.21-.26.23-.23.25-.2.27-.19.27-.15.28-.16.31-.12.33-.09.33-.08.34,0,.17,0,.16-.05.28-.05.26-.05.23,0,.1v.11l0,.09,0,.09,0,.08,0,.07,0,.14,0,.1v.22l0,.09-.08.15,0,.06-.11.14,0,.06-.06,0,0,0-.07.06,0,0-.07,0-.08,0-.06,0-.08,0-.06,0-.08,0-.08,0h-.08l-.09,0h-.78l-.31,0-.14,0-.38-.15-.12-.07-.11-.07-.11-.09-.09-.08-.18-.2-.08-.12-.13-.23-.06-.15,0-.14-.05-.14,0-.16,0-.15V86.53l0-.24,0-.24.1-.5.13-.48.07-.25.08-.23.09-.25.11-.23.11-.24.23-.47.42-.7.15-.22.17-.22.53-.66.21-.22.23-.28.53-.48.3-.23.64-.44.35-.2.35-.19.38-.18.39-.17.4-.16.44-.15.43-.13.47-.13.47-.11.48-.11.5-.09.51-.09,1.08-.13.55,0,.58,0,.58,0h2.66ZM342,96l-1.66.59L339,97.4l-.93,1.09-.56,1.32-.18,1.58,0,.82.16.78.26.73.37.67.47.6.6.5.72.41.61.33.68.29.73.23.78.18.83.13.88.08.93,0,.82,0,.79,0,.77-.1.75-.16.73-.19.73-.27.71-.33.49-.28.53-.36.6-.4.64-.45.69-.51.72-.54.75-.58V97l-1.3-.4-1.31-.34L351.24,96,350,95.78l-1.24-.17-1.2-.1-1.15,0L344,95.6Z"/><path id="a2dF9UjJYG-2" data-name="a2dF9UjJYG" class="cls-2" d="M347.83,78l.48,0,.44,0,.44,0,.42,0,.42,0,.41.06.4.05.38.09.37.05.35.1.36.07.33.09.35.11.32.1.31.1.3.12.3.13.29.12.28.14.27.13.25.14.26.15.28.21.27.22.25.22.25.25.23.24.23.27.21.27.21.28.19.3.18.31.16.31.17.32.28.7.13.36.11.36.1.38.1.39.07.4.07.41.05.43,0,.44,0,.44,0,.45v15.38l0,.36,0,.34,0,.17,0,.15,0,.14,0,.16,0,.14.08.26,0,.13.15.34.06.11.06.1.06.09.15.18.17.17h0l0,0,0,0,.05,0,0,0,.1.05.06,0,.13,0,.08,0,.08,0,.27.11.3.12.12,0,.11,0,.12,0,.11,0,.13,0,.14.05.07,0,.16.08.06,0,.07,0,.13.1,0,.06.05.06.05.06,0,.07,0,.07.08.15,0,.1,0,.07,0,.11,0,.09v.1l0,.1v.23l0,.12v.52l0,.12v.11l0,.11,0,.11,0,.1,0,.09,0,.09-.05.08-.13.15-.06.07-.08.07-.27.15-.2.08-.11,0-.13,0-.26,0-.14,0h-.25l-.05,0h-.2l-.25,0-.06,0h-.09l-.07,0h-.08l-.26-.08-.11,0-.08,0-.11,0-.11,0-.1,0-.12,0-.36-.12L359,110l-.17,0-.15-.07-.31-.1-.14,0-.14,0-.12,0-.12,0-.13,0-.1,0-.12,0-.1,0-.09,0-.09,0-.15,0-.19-.07-.06,0,0,0,0,0h-.17l-.09,0-.07,0-.08,0-.06,0-.08-.06-.06,0-.07-.06-.06-.08-.06-.07-.06-.08-.05-.08-.06-.1-.05-.1,0-.09,0-.11-.05-.12-.08-.23-.15-.52-.05-.14-.55.39-.54.36-.26.18-.48.31-.23.15-.44.29-.4.26-.19.11-.18.1-.33.21-.17.09-.14.1-.41.2-.11,0-.21.11-.1,0-.17.08-.16,0-.36.12-.58.16-.19,0-.2.05-.21,0-.43.08-.22,0-.21,0-.69.08-.25,0-.24,0h-.5l-.24,0h-1.19l-.39,0h-.39l-.77,0-.73-.08-.36,0-.36-.06-.69-.13-.66-.16-.32-.08-.32-.11-.31-.1-.31-.12-.58-.23-.28-.14-.28-.13-.27-.15-.27-.15-.26-.15-.25-.17-.3-.2-.28-.21-.53-.47-.24-.23-.24-.25-.23-.25-.2-.26-.2-.27-.19-.28-.17-.29-.17-.29-.15-.3-.14-.31-.13-.31-.11-.32-.21-.67-.07-.34-.07-.35-.1-.72-.05-.74V101l0-.38,0-.38,0-.36.13-.72.18-.7.11-.33.26-.65.15-.32.15-.31.36-.59.19-.29.21-.27.22-.27.24-.26.23-.25.25-.24.27-.23.56-.44.31-.2.54-.39.28-.18.58-.34.62-.31.32-.14.63-.26.34-.11.69-.21.34-.09.36-.09.36-.08.36-.06.36-.07.37,0,.39,0,.37,0,.39,0,.39,0h1.8l.68.06.35,0,.36,0,.36,0,.37.07.36,0,.37.08.37.06.38.09.76.17,1.19.31.4.12.42.11.41.13.42.13.42.14.44.14.43.16V88l0-.27,0-.27,0-.27-.05-.25-.05-.26-.08-.24-.07-.23-.09-.24-.11-.21-.11-.23-.26-.41-.15-.2-.15-.18-.17-.2-.36-.33-.2-.17-.44-.31-.22-.14-.25-.13-.25-.13-.27-.13-.18-.08-.39-.15-.81-.26-.65-.15-.23,0-.22,0-.24,0-.23,0-.23,0-.48,0-.26,0h-.24l-.26,0h-1.91l-.61,0-.58,0-.55,0-.53.06-.51.08-.47.08-.46.1-.44.12-.4.14-.38.14-.38.16-.34.17-.32.18-.29.21-.27.21-.26.23-.23.25-.2.27-.19.27-.15.28-.16.31-.12.33-.09.33-.08.34,0,.17,0,.16-.05.28-.05.26-.05.23,0,.1v.11l0,.09,0,.09,0,.08,0,.07,0,.14,0,.1v.22l0,.09-.08.15,0,.06-.11.14,0,.06-.06,0,0,0-.07.06,0,0-.07,0-.08,0-.06,0-.08,0-.06,0-.08,0-.08,0h-.08l-.09,0h-.78l-.31,0-.14,0-.38-.15-.12-.07-.11-.07-.11-.09-.09-.08-.18-.2-.08-.12-.13-.23-.06-.15,0-.14-.05-.14,0-.16,0-.15V86.53l0-.24,0-.24.1-.5.13-.48.07-.25.08-.23.09-.25.11-.23.11-.24.23-.47.42-.7.15-.22.17-.22.53-.66.21-.22.23-.28.53-.48.3-.23.64-.44.35-.2.35-.19.38-.18.39-.17.4-.16.44-.15.43-.13.47-.13.47-.11.48-.11.5-.09.51-.09,1.08-.13.55,0,.58,0,.58,0h2.66ZM342,96l-1.66.59L339,97.4l-.93,1.09-.56,1.32-.18,1.58,0,.82.16.78.26.73.37.67.47.6.6.5.72.41.61.33.68.29.73.23.78.18.83.13.88.08.93,0,.82,0,.79,0,.77-.1.75-.16.73-.19.73-.27.71-.33.49-.28.53-.36.6-.4.64-.45.69-.51.72-.54.75-.58V97l-1.3-.4-1.31-.34L351.24,96,350,95.78l-1.24-.17-1.2-.1-1.15,0L344,95.6Z"/><path id="a3HkJ42x2Q" class="cls-1" d="M253.94,64.89l.15,0,.15.07.13.08.12.09.12.11.2.23.1.14.07.15.08.17.06.17.1.39.07.44,0,.48,0,.26V109.1l0,.19v.18l0,.17-.07.31,0,.14-.06.13-.05.13-.16.23-.17.18-.11.09-.1.07-.12.06-.12.06-.13.06-.14,0-.31,0h-.43l-.31,0-.1,0-.09,0-.09,0-.09,0-.07,0-.08,0-.07-.07-.14-.12-.06-.08-.15-.27,0-.1,0-.12,0-.12,0-.11,0-.13v-.39l0-.1V109l0-.1v-.34l0-.23v-.65l0-.15v-.31l-.33.21-.31.21-.31.2-.59.36-.27.18-.28.17-.51.31-.24.14-.23.14-.23.13-.61.35-.18.09-.18.1-.33.16-.29.13-.14,0-.2.08-.22.08-.22.06-.45.13-.74.15-.25.06-.51.07-.54.08-.26,0-.56,0H240l-.48,0-.49,0-.47,0-.47-.06-.45-.07-.89-.15-.85-.21-.42-.11-.39-.12-.4-.14-.76-.28-.37-.18-.36-.16-.35-.18-.34-.2-.33-.19-.34-.21-.34-.24-.66-.54-.3-.29-.29-.29-.28-.31-.26-.32-.24-.34-.23-.34-.41-.71-.18-.38-.15-.38-.16-.41-.12-.4-.12-.42-.09-.44-.08-.44-.06-.45-.05-.46,0-.48V88.2l0-.48.05-.45,0-.44.08-.43.1-.43.1-.41.13-.4.14-.39.15-.37.18-.38.18-.36.21-.35.22-.33.24-.33.25-.32.26-.3.28-.29.29-.29.64-.53.35-.25.3-.21.31-.19.33-.19.35-.18.34-.17.36-.17.74-.28.38-.14.79-.24.82-.2.42-.08.43-.08.44-.06.45-.07.89-.08.46,0h1.57l.61,0h.3l.31,0,.28,0,.29,0,.27,0,.28,0,.54.08.25,0,.51.1.25,0,.22,0,.69.2.21.08.22.08.2.07.22.08.2.09.22.09.22.1.22.11.44.23.69.39.23.13.69.47.48.33.24.19.23.17.25.2.48.41V67.72l0-.26,0-.48.08-.44,0-.2.06-.19.05-.17.08-.17.07-.15.09-.14.09-.12.11-.11.1-.11.12-.09.12-.08.13-.07.14,0,.3-.08.16,0h.35l.17,0ZM240.08,82.57l-.64.05-.63.07-.61.11-.58.13-.56.13-.52.18-.5.2-.47.23-.44.25-.5.36-.47.38-.42.42-.37.44L233,86l-.28.49-.24.51-.18.54-.13.57-.09.58,0,.62V100.4l0,.64.08.61.11.58.18.55.22.52.27.49.33.46.38.43.42.4.48.34.54.34.47.22.49.2.51.19.54.17.55.16.58.13.61.11.63.1.65.06.68,0h.7l1.12,0,.56,0,.53,0,1.05-.16.5-.1.49-.13.47-.14.44-.16.43-.18.35-.24.37-.26.38-.27.39-.3.4-.29.4-.32.43-.34.41-.35.44-.37.45-.39.44-.4V86.43l-.52-.38-.51-.34-.49-.35-.48-.32-.46-.3-.43-.27-.43-.26-.39-.21-.37-.2-.34-.17-.33-.13-.46-.17-.46-.16-.47-.14L245,82.9l-.49-.1-.5-.08-.51-.08-.5,0-.52,0-1,0h-.66Z"/><path id="a3HkJ42x2Q-2" data-name="a3HkJ42x2Q" class="cls-2" d="M253.94,64.89l.15,0,.15.07.13.08.12.09.12.11.2.23.1.14.07.15.08.17.06.17.1.39.07.44,0,.48,0,.26V109.1l0,.19v.18l0,.17-.07.31,0,.14-.06.13-.05.13-.16.23-.17.18-.11.09-.1.07-.12.06-.12.06-.13.06-.14,0-.31,0h-.43l-.31,0-.1,0-.09,0-.09,0-.09,0-.07,0-.08,0-.07-.07-.14-.12-.06-.08-.15-.27,0-.1,0-.12,0-.12,0-.11,0-.13v-.39l0-.1V109l0-.1v-.34l0-.23v-.65l0-.15v-.31l-.33.21-.31.21-.31.2-.59.36-.27.18-.28.17-.51.31-.24.14-.23.14-.23.13-.61.35-.18.09-.18.1-.33.16-.29.13-.14,0-.2.08-.22.08-.22.06-.45.13-.74.15-.25.06-.51.07-.54.08-.26,0-.56,0H240l-.48,0-.49,0-.47,0-.47-.06-.45-.07-.89-.15-.85-.21-.42-.11-.39-.12-.4-.14-.76-.28-.37-.18-.36-.16-.35-.18-.34-.2-.33-.19-.34-.21-.34-.24-.66-.54-.3-.29-.29-.29-.28-.31-.26-.32-.24-.34-.23-.34-.41-.71-.18-.38-.15-.38-.16-.41-.12-.4-.12-.42-.09-.44-.08-.44-.06-.45-.05-.46,0-.48V88.2l0-.48.05-.45,0-.44.08-.43.1-.43.1-.41.13-.4.14-.39.15-.37.18-.38.18-.36.21-.35.22-.33.24-.33.25-.32.26-.3.28-.29.29-.29.64-.53.35-.25.3-.21.31-.19.33-.19.35-.18.34-.17.36-.17.74-.28.38-.14.79-.24.82-.2.42-.08.43-.08.44-.06.45-.07.89-.08.46,0h1.57l.61,0h.3l.31,0,.28,0,.29,0,.27,0,.28,0,.54.08.25,0,.51.1.25,0,.22,0,.69.2.21.08.22.08.2.07.22.08.2.09.22.09.22.1.22.11.44.23.69.39.23.13.69.47.48.33.24.19.23.17.25.2.48.41V67.72l0-.26,0-.48.08-.44,0-.2.06-.19.05-.17.08-.17.07-.15.09-.14.09-.12.11-.11.1-.11.12-.09.12-.08.13-.07.14,0,.3-.08.16,0h.35l.17,0ZM240.08,82.57l-.64.05-.63.07-.61.11-.58.13-.56.13-.52.18-.5.2-.47.23-.44.25-.5.36-.47.38-.42.42-.37.44L233,86l-.28.49-.24.51-.18.54-.13.57-.09.58,0,.62V100.4l0,.64.08.61.11.58.18.55.22.52.27.49.33.46.38.43.42.4.48.34.54.34.47.22.49.2.51.19.54.17.55.16.58.13.61.11.63.1.65.06.68,0h.7l1.12,0,.56,0,.53,0,1.05-.16.5-.1.49-.13.47-.14.44-.16.43-.18.35-.24.37-.26.38-.27.39-.3.4-.29.4-.32.43-.34.41-.35.44-.37.45-.39.44-.4V86.43l-.52-.38-.51-.34-.49-.35-.48-.32-.46-.3-.43-.27-.43-.26-.39-.21-.37-.2-.34-.17-.33-.13-.46-.17-.46-.16-.47-.14L245,82.9l-.49-.1-.5-.08-.51-.08-.5,0-.52,0-1,0h-.66Z"/><path id="d2iPJF0rB9" class="cls-1" d="M322.27,69.13a10.45,10.45,0,0,1,4.2,8.7c0,1.68-.69,2.52-2.08,2.52q-1.44,0-2.07-2.52a14.78,14.78,0,0,0-1.52-4c-1.25-2.23-3.92-3.25-8.07-3.25-3.64,0-6.13.84-7.65,2.65s-2.21,4.24-2.21,8V95.89c0,3.82.83,6.48,2.35,8.15s4.19,2.79,7.79,2.79c5.44,0,8.62-2,9.31-5.76.28-1.41.42-2.11.42-2.25a1.61,1.61,0,0,1,1.65-1.25c1.39,0,2.08.84,2.08,2.52a9.52,9.52,0,0,1-4.33,8.29,16.38,16.38,0,0,1-9.18,2.37c-4.47,0-7.93-1-10.46-3.08-2.82-2-4.2-5.3-4.2-9.69h0V80.4c0-9.28,4.75-13.79,14.48-13.79A16.52,16.52,0,0,1,322.27,69.13Z"/><path id="d2iPJF0rB9-2" data-name="d2iPJF0rB9" class="cls-2" d="M322.27,69.13a10.45,10.45,0,0,1,4.2,8.7c0,1.68-.69,2.52-2.08,2.52q-1.44,0-2.07-2.52a14.78,14.78,0,0,0-1.52-4c-1.25-2.23-3.92-3.25-8.07-3.25-3.64,0-6.13.84-7.65,2.65s-2.21,4.24-2.21,8V95.89c0,3.82.83,6.48,2.35,8.15s4.19,2.79,7.79,2.79c5.44,0,8.62-2,9.31-5.76.28-1.41.42-2.11.42-2.25a1.61,1.61,0,0,1,1.65-1.25c1.39,0,2.08.84,2.08,2.52a9.52,9.52,0,0,1-4.33,8.29,16.38,16.38,0,0,1-9.18,2.37c-4.47,0-7.93-1-10.46-3.08-2.82-2-4.2-5.3-4.2-9.69h0V80.4c0-9.28,4.75-13.79,14.48-13.79A16.52,16.52,0,0,1,322.27,69.13Z"/><path id="dzhlmAMnT" class="cls-1" d="M279.56,78.45l1.06.13,1,.19,1,.23.91.29.85.35.81.38.74.45.69.51.65.54.58.6.54.65.5.71.43.76.39.8.33.87.28.89.23,1,.18,1,.12,1.07L290.9,91l0,1.17v.28l0,.27,0,.26,0,.25-.05.24-.05.22-.07.22-.06.19-.07.19-.1.17-.1.16-.11.15-.12.14-.25.24-.31.18-.33.13-.19,0-.19,0-.21,0H267v4.34l0,.6,0,.59.1.56.13.53.18.5.2.48.26.44.28.42.33.39.36.37.41.33.45.31.47.29.52.26.56.23.59.21.64.16.68.16.71.11.75.09.8.08.83,0h1.81l.61,0,.3,0h.28l.56-.06.27,0,.26,0,.77-.12.49-.1.46-.1.22-.07.22,0,.21-.06.2-.08.31-.1.12-.06.12,0,.13-.06.14,0,.14-.07.15-.07.16-.07.33-.17.18-.1.18-.1.19-.11.19-.11.2-.12.21-.12.22-.13.21-.15.23-.15.49-.31.24-.17.26-.18.15-.14.16-.14.14-.13.16-.13.14-.11.14-.11.25-.21.12-.08.13-.1.11-.07.11-.08.1-.07.1,0,.09-.06.18-.08.07,0,.15,0h.6l.22,0,.12,0,.1,0,.11,0,.08,0,.08.07.16.15.06.08.06.09.1.21,0,.11,0,.13.05.26v.62l0,.17v.16l0,.16,0,.17-.05.17-.06.16-.08.15-.07.17-.1.17-.2.34-.12.15-.12.17-.29.34-.49.5-.58.5-.22.18-.71.51-.38.25-.41.25-.41.22-.43.22-.45.19-.46.19-.47.18-.5.17-.51.15-.52.15-.54.14-.55.11-.56.11-.59.1-.6.08-.61.07-.63,0L279,111l-1.33,0h-1.87l-1.14-.07-1.08-.1-1-.15-1-.19-.93-.23-.89-.27-.81-.32-.78-.35-.72-.4-.66-.44-.61-.49-.56-.52-.52-.56-.44-.62-.41-.65-.35-.69-.29-.74-.24-.78-.19-.82-.13-.86-.09-.91,0-1V88.63l0-.31V88l0-.31,0-.32.05-.33.13-.62.09-.29.09-.31.1-.3.12-.29.12-.29.29-.57.16-.28.17-.27.18-.27.2-.26.19-.25.22-.26.46-.49.26-.25.33-.32.34-.3.37-.3.37-.26.4-.26.42-.25.42-.23.45-.22.45-.19.47-.2.49-.16,1-.31.52-.13.55-.12.55-.1.57-.08.59-.08.6-.06.6,0,.63,0,.64,0h.65l1.17,0Zm-4.95,4-1,.16-1,.25-.91.31-.9.37-.84.44-.83.62-.69.64-.56.7-.43.72-.3.76-.18.8-.07.84v2.38h19.93L286.66,89l-.62-2-1-1.67-1.45-1.31L281.68,83l-2.3-.55-2.71-.19-1,0Z"/><path id="dzhlmAMnT-2" data-name="dzhlmAMnT" class="cls-2" d="M279.56,78.45l1.06.13,1,.19,1,.23.91.29.85.35.81.38.74.45.69.51.65.54.58.6.54.65.5.71.43.76.39.8.33.87.28.89.23,1,.18,1,.12,1.07L290.9,91l0,1.17v.28l0,.27,0,.26,0,.25-.05.24-.05.22-.07.22-.06.19-.07.19-.1.17-.1.16-.11.15-.12.14-.25.24-.31.18-.33.13-.19,0-.19,0-.21,0H267v4.34l0,.6,0,.59.1.56.13.53.18.5.2.48.26.44.28.42.33.39.36.37.41.33.45.31.47.29.52.26.56.23.59.21.64.16.68.16.71.11.75.09.8.08.83,0h1.81l.61,0,.3,0h.28l.56-.06.27,0,.26,0,.77-.12.49-.1.46-.1.22-.07.22,0,.21-.06.2-.08.31-.1.12-.06.12,0,.13-.06.14,0,.14-.07.15-.07.16-.07.33-.17.18-.1.18-.1.19-.11.19-.11.2-.12.21-.12.22-.13.21-.15.23-.15.49-.31.24-.17.26-.18.15-.14.16-.14.14-.13.16-.13.14-.11.14-.11.25-.21.12-.08.13-.1.11-.07.11-.08.1-.07.1,0,.09-.06.18-.08.07,0,.15,0h.6l.22,0,.12,0,.1,0,.11,0,.08,0,.08.07.16.15.06.08.06.09.1.21,0,.11,0,.13.05.26v.62l0,.17v.16l0,.16,0,.17-.05.17-.06.16-.08.15-.07.17-.1.17-.2.34-.12.15-.12.17-.29.34-.49.5-.58.5-.22.18-.71.51-.38.25-.41.25-.41.22-.43.22-.45.19-.46.19-.47.18-.5.17-.51.15-.52.15-.54.14-.55.11-.56.11-.59.1-.6.08-.61.07-.63,0L279,111l-1.33,0h-1.87l-1.14-.07-1.08-.1-1-.15-1-.19-.93-.23-.89-.27-.81-.32-.78-.35-.72-.4-.66-.44-.61-.49-.56-.52-.52-.56-.44-.62-.41-.65-.35-.69-.29-.74-.24-.78-.19-.82-.13-.86-.09-.91,0-1V88.63l0-.31V88l0-.31,0-.32.05-.33.13-.62.09-.29.09-.31.1-.3.12-.29.12-.29.29-.57.16-.28.17-.27.18-.27.2-.26.19-.25.22-.26.46-.49.26-.25.33-.32.34-.3.37-.3.37-.26.4-.26.42-.25.42-.23.45-.22.45-.19.47-.2.49-.16,1-.31.52-.13.55-.12.55-.1.57-.08.59-.08.6-.06.6,0,.63,0,.64,0h.65l1.17,0Zm-4.95,4-1,.16-1,.25-.91.31-.9.37-.84.44-.83.62-.69.64-.56.7-.43.72-.3.76-.18.8-.07.84v2.38h19.93L286.66,89l-.62-2-1-1.67-1.45-1.31L281.68,83l-2.3-.55-2.71-.19-1,0Z"/><path class="cls-1" d="M743,37.43a63,63,0,0,0-48.19,9.28c0,.1,0,.2,0,.3,0,21.47-12,40-29.48,48.79a50.38,50.38,0,0,1-22.7,5.38c-.83,0-1.66,0-2.48-.06a62.85,62.85,0,0,0,38.5,13.12,62.65,62.65,0,0,0,22-4c20-7.48,35.5-24.9,40.89-46.54a63,63,0,0,1,39.78-1.41A64.78,64.78,0,0,0,743,37.43ZM716,69a11.59,11.59,0,1,1,11.6-11.59A11.58,11.58,0,0,1,716,69Z"/><path class="cls-1" d="M716.05,51.57a5.8,5.8,0,1,0,5.78,5.78A5.79,5.79,0,0,0,716.05,51.57Z"/><path class="cls-1" d="M667.33,83.33a34.48,34.48,0,0,1-15.43-3.65,36.93,36.93,0,0,1-20-33.11v-.2c-9-4.58-15-7.23-23.75-7.23a42.7,42.7,0,0,0-8.89.93,43.84,43.84,0,0,0-26,16.89,42.8,42.8,0,0,1,27,1A45.34,45.34,0,0,0,628,89.5a42.76,42.76,0,0,0,41-6.22C668.46,83.31,667.89,83.33,667.33,83.33ZM617.6,61.42a7.84,7.84,0,1,1,7.84-7.84A7.83,7.83,0,0,1,617.6,61.42Z"/><path class="cls-1" d="M617.61,49.66a3.92,3.92,0,1,0,3.91,3.92A3.92,3.92,0,0,0,617.61,49.66Z"/><path class="cls-3" d="M636.92,146.09v2.61H624V125.82H627v20.27Z"/><path class="cls-3" d="M643.44,148.7h-3.1V125.82h3.1Z"/><path class="cls-3" d="M661,129.4a1.26,1.26,0,0,1-.31.36.71.71,0,0,1-.41.12,1.16,1.16,0,0,1-.64-.27,8.71,8.71,0,0,0-.92-.6,7.11,7.11,0,0,0-1.32-.6,5.75,5.75,0,0,0-1.88-.27,5.31,5.31,0,0,0-1.82.28,4,4,0,0,0-1.33.75,3.22,3.22,0,0,0-.81,1.13,3.6,3.6,0,0,0-.27,1.4,2.6,2.6,0,0,0,.47,1.58,4,4,0,0,0,1.25,1.08,9.23,9.23,0,0,0,1.76.78l2,.67c.68.24,1.35.5,2,.79a7.44,7.44,0,0,1,1.75,1.11,5.15,5.15,0,0,1,1.25,1.65,5.53,5.53,0,0,1,.47,2.39,7.76,7.76,0,0,1-.51,2.82,6.53,6.53,0,0,1-1.49,2.29,7,7,0,0,1-2.41,1.53,9,9,0,0,1-3.25.56,9.91,9.91,0,0,1-4.06-.81,9.46,9.46,0,0,1-3.11-2.17l.89-1.47a1.14,1.14,0,0,1,.32-.3.7.7,0,0,1,.4-.12.9.9,0,0,1,.47.17,6.79,6.79,0,0,1,.6.42c.23.17.48.36.77.56a6.46,6.46,0,0,0,1,.56,6.78,6.78,0,0,0,1.25.42,6.43,6.43,0,0,0,1.58.17,6,6,0,0,0,2-.3,4.15,4.15,0,0,0,1.46-.86,3.56,3.56,0,0,0,.91-1.31,4.27,4.27,0,0,0,.32-1.71,2.82,2.82,0,0,0-.47-1.7,3.89,3.89,0,0,0-1.23-1.11,8.63,8.63,0,0,0-1.76-.76l-2-.64a21.15,21.15,0,0,1-2-.75,6.52,6.52,0,0,1-1.76-1.12,5.08,5.08,0,0,1-1.23-1.72,6.46,6.46,0,0,1,0-4.89,5.85,5.85,0,0,1,1.37-2,6.75,6.75,0,0,1,2.22-1.41,8.06,8.06,0,0,1,3-.52,9.72,9.72,0,0,1,3.49.6,8.28,8.28,0,0,1,2.77,1.76Z"/><path class="cls-3" d="M673.89,125.82a13.82,13.82,0,0,1,3.63.42,7,7,0,0,1,2.51,1.18,4.68,4.68,0,0,1,1.44,1.87,6.44,6.44,0,0,1,.46,2.5,4.87,4.87,0,0,1-1,3.07,5.74,5.74,0,0,1-1.33,1.2,7.16,7.16,0,0,1-1.89.87,6.92,6.92,0,0,1,3.79,1.8,4.8,4.8,0,0,1,1.27,3.45,6.37,6.37,0,0,1-.54,2.65,5.61,5.61,0,0,1-1.56,2.06,7.17,7.17,0,0,1-2.53,1.33,11.21,11.21,0,0,1-3.42.48H666.6V125.82Zm-4.21,2.44v7.81h4.08a8.15,8.15,0,0,0,2.28-.29,4.4,4.4,0,0,0,1.59-.8,3.22,3.22,0,0,0,.94-1.23,4.17,4.17,0,0,0,.3-1.59,3.52,3.52,0,0,0-1.21-3,6.2,6.2,0,0,0-3.77-.94Zm4.94,18a7.38,7.38,0,0,0,2.29-.31,4.22,4.22,0,0,0,1.57-.85,3.28,3.28,0,0,0,.9-1.31,4.68,4.68,0,0,0,.29-1.67,3.43,3.43,0,0,0-1.26-2.8,6,6,0,0,0-3.79-1h-4.94v8Z"/><path class="cls-3" d="M708.37,137.27a13.23,13.23,0,0,1-.82,4.71,10.68,10.68,0,0,1-2.3,3.7,10.36,10.36,0,0,1-3.56,2.4,12.9,12.9,0,0,1-9.21,0,10.46,10.46,0,0,1-3.56-2.4,10.81,10.81,0,0,1-2.29-3.7,14,14,0,0,1,0-9.43,10.9,10.9,0,0,1,2.29-3.7,10.37,10.37,0,0,1,3.56-2.42,12.76,12.76,0,0,1,9.21,0,10.27,10.27,0,0,1,3.56,2.42,10.77,10.77,0,0,1,2.3,3.7A13.25,13.25,0,0,1,708.37,137.27Zm-3.18,0a11.74,11.74,0,0,0-.57-3.79,8.19,8.19,0,0,0-1.63-2.83,7.24,7.24,0,0,0-2.56-1.78,9.31,9.31,0,0,0-6.68,0,7.28,7.28,0,0,0-2.57,1.78,8,8,0,0,0-1.63,2.83,11.74,11.74,0,0,0-.58,3.79,11.61,11.61,0,0,0,.58,3.77,8,8,0,0,0,1.63,2.83,7.13,7.13,0,0,0,2.57,1.77,9.45,9.45,0,0,0,6.68,0,7.09,7.09,0,0,0,2.56-1.77,8.19,8.19,0,0,0,1.63-2.83A11.62,11.62,0,0,0,705.19,137.27Z"/><path class="cls-3" d="M731.32,125.82V148.7h-1.55a1.42,1.42,0,0,1-.62-.13,1.69,1.69,0,0,1-.48-.43L715.44,130.9c0,.27,0,.52,0,.78s0,.49,0,.72v16.3h-2.71V125.82h1.59a1.69,1.69,0,0,1,.35,0,.72.72,0,0,1,.26.08.77.77,0,0,1,.22.16,1.54,1.54,0,0,1,.24.26l13.23,17.22c0-.27,0-.54,0-.8s0-.51,0-.75v-16.2Z"/><rect class="cls-1" x="558.86" y="89.28" width="10" height="10"/></g></svg>